<svg xmlns="http://www.w3.org/2000/svg" width="500" height="159.2" viewBox="0 0 500 159.2" role="img" aria-label="Contribution graph: 2583 contributions in the last year"><text x="0" y="16" fill="#6e7681" font-size="15" font-weight="700" font-family="system-ui,-apple-system,Segoe UI,Roboto,Helvetica,Arial,sans-serif">Contribution activity</text><text x="0" y="33" fill="#8b949e" font-size="11" font-family="system-ui,-apple-system,Segoe UI,Roboto,Helvetica,Arial,sans-serif">2,583 contributions · 221 active days · peak 81 in a day</text><rect x="30.0" y="62.0" width="8" height="8" rx="2" fill="#1f6feb" fill-opacity="0.46"/><rect x="30.0" y="71.6" width="8" height="8" rx="2" fill="#1f6feb" fill-opacity="0.10"/><rect x="30.0" y="81.2" width="8" height="8" rx="2" fill="#1f6feb" fill-opacity="0.10"/><rect x="30.0" y="90.8" width="8" height="8" rx="2" fill="#1f6feb" fill-opacity="0.10"/><rect x="30.0" y="100.4" width="8" height="8" rx="2" fill="#1f6feb" fill-opacity="0.10"/><rect x="30.0" y="110.0" width="8" height="8" rx="2" fill="#1f6feb" fill-opacity="0.46"/><rect x="30.0" y="119.6" width="8" height="8" rx="2" fill="#1f6feb" fill-opacity="0.10"/><rect x="39.6" y="62.0" width="8" height="8" rx="2" fill="#1f6feb" fill-opacity="0.10"/><rect x="39.6" y="71.6" width="8" height="8" rx="2" fill="#1f6feb" fill-opacity="0.40"/><rect x="39.6" y="81.2" width="8" height="8" rx="2" fill="#1f6feb" fill-opacity="0.43"/><rect x="39.6" y="90.8" width="8" height="8" rx="2" fill="#1f6feb" fill-opacity="0.46"/><rect x="39.6" y="100.4" width="8" height="8" rx="2" fill="#1f6feb" fill-opacity="0.46"/><rect x="39.6" y="110.0" width="8" height="8" rx="2" fill="#1f6feb" fill-opacity="0.43"/><rect x="39.6" y="119.6" width="8" height="8" rx="2" fill="#1f6feb" fill-opacity="0.10"/><rect x="49.2" y="62.0" width="8" height="8" rx="2" fill="#1f6feb" fill-opacity="0.10"/><rect x="49.2" y="71.6" width="8" height="8" rx="2" fill="#1f6feb" fill-opacity="0.10"/><rect x="49.2" y="81.2" width="8" height="8" rx="2" fill="#1f6feb" fill-opacity="0.46"/><rect x="49.2" y="90.8" width="8" height="8" rx="2" fill="#1f6feb" fill-opacity="0.10"/><rect x="49.2" y="100.4" width="8" height="8" rx="2" fill="#1f6feb" fill-opacity="0.10"/><rect x="49.2" y="110.0" width="8" height="8" rx="2" fill="#1f6feb" fill-opacity="0.10"/><rect x="49.2" y="119.6" width="8" height="8" rx="2" fill="#1f6feb" fill-opacity="0.10"/><rect x="58.8" y="62.0" width="8" height="8" rx="2" fill="#1f6feb" fill-opacity="0.10"/><rect x="58.8" y="71.6" width="8" height="8" rx="2" fill="#1f6feb" fill-opacity="0.48"/><rect x="58.8" y="81.2" width="8" height="8" rx="2" fill="#1f6feb" fill-opacity="0.10"/><rect x="58.8" y="90.8" width="8" height="8" rx="2" fill="#1f6feb" fill-opacity="0.46"/><rect x="58.8" y="100.4" width="8" height="8" rx="2" fill="#1f6feb" fill-opacity="0.10"/><rect x="58.8" y="110.0" width="8" height="8" rx="2" fill="#1f6feb" fill-opacity="0.40"/><rect x="58.8" y="119.6" width="8" height="8" rx="2" fill="#1f6feb" fill-opacity="0.10"/><rect x="68.4" y="62.0" width="8" height="8" rx="2" fill="#1f6feb" fill-opacity="0.40"/><rect x="68.4" y="71.6" width="8" height="8" rx="2" fill="#1f6feb" fill-opacity="0.46"/><rect x="68.4" y="81.2" width="8" height="8" rx="2" fill="#1f6feb" fill-opacity="0.10"/><rect x="68.4" y="90.8" width="8" height="8" rx="2" fill="#1f6feb" fill-opacity="0.10"/><rect x="68.4" y="100.4" width="8" height="8" rx="2" fill="#1f6feb" fill-opacity="0.10"/><rect x="68.4" y="110.0" width="8" height="8" rx="2" fill="#1f6feb" fill-opacity="0.40"/><rect x="68.4" y="119.6" width="8" height="8" rx="2" fill="#1f6feb" fill-opacity="0.10"/><rect x="78.0" y="62.0" width="8" height="8" rx="2" fill="#1f6feb" fill-opacity="0.10"/><rect x="78.0" y="71.6" width="8" height="8" rx="2" fill="#1f6feb" fill-opacity="0.10"/><rect x="78.0" y="81.2" width="8" height="8" rx="2" fill="#1f6feb" fill-opacity="0.40"/><rect x="78.0" y="90.8" width="8" height="8" rx="2" fill="#1f6feb" fill-opacity="0.10"/><rect x="78.0" y="100.4" width="8" height="8" rx="2" fill="#1f6feb" fill-opacity="0.10"/><rect x="78.0" y="110.0" width="8" height="8" rx="2" fill="#1f6feb" fill-opacity="0.43"/><rect x="78.0" y="119.6" width="8" height="8" rx="2" fill="#1f6feb" fill-opacity="0.10"/><rect x="87.6" y="62.0" width="8" height="8" rx="2" fill="#1f6feb" fill-opacity="0.10"/><rect x="87.6" y="71.6" width="8" height="8" rx="2" fill="#1f6feb" fill-opacity="0.10"/><rect x="87.6" y="81.2" width="8" height="8" rx="2" fill="#1f6feb" fill-opacity="0.10"/><rect x="87.6" y="90.8" width="8" height="8" rx="2" fill="#1f6feb" fill-opacity="0.10"/><rect x="87.6" y="100.4" width="8" height="8" rx="2" fill="#1f6feb" fill-opacity="0.10"/><rect x="87.6" y="110.0" width="8" height="8" rx="2" fill="#1f6feb" fill-opacity="0.10"/><rect x="87.6" y="119.6" width="8" height="8" rx="2" fill="#1f6feb" fill-opacity="0.10"/><rect x="97.2" y="62.0" width="8" height="8" rx="2" fill="#1f6feb" fill-opacity="0.10"/><rect x="97.2" y="71.6" width="8" height="8" rx="2" fill="#1f6feb" fill-opacity="0.10"/><rect x="97.2" y="81.2" width="8" height="8" rx="2" fill="#1f6feb" fill-opacity="0.10"/><rect x="97.2" y="90.8" width="8" height="8" rx="2" fill="#1f6feb" fill-opacity="0.10"/><rect x="97.2" y="100.4" width="8" height="8" rx="2" fill="#1f6feb" fill-opacity="0.10"/><rect x="97.2" y="110.0" width="8" height="8" rx="2" fill="#1f6feb" fill-opacity="0.10"/><rect x="97.2" y="119.6" width="8" height="8" rx="2" fill="#1f6feb" fill-opacity="0.10"/><rect x="106.8" y="62.0" width="8" height="8" rx="2" fill="#1f6feb" fill-opacity="0.10"/><rect x="106.8" y="71.6" width="8" height="8" rx="2" fill="#1f6feb" fill-opacity="0.10"/><rect x="106.8" y="81.2" width="8" height="8" rx="2" fill="#1f6feb" fill-opacity="0.10"/><rect x="106.8" y="90.8" width="8" height="8" rx="2" fill="#1f6feb" fill-opacity="0.10"/><rect x="106.8" y="100.4" width="8" height="8" rx="2" fill="#1f6feb" fill-opacity="0.10"/><rect x="106.8" y="110.0" width="8" height="8" rx="2" fill="#1f6feb" fill-opacity="0.10"/><rect x="106.8" y="119.6" width="8" height="8" rx="2" fill="#1f6feb" fill-opacity="0.10"/><rect x="116.4" y="62.0" width="8" height="8" rx="2" fill="#1f6feb" fill-opacity="0.10"/><rect x="116.4" y="71.6" width="8" height="8" rx="2" fill="#1f6feb" fill-opacity="0.10"/><rect x="116.4" y="81.2" width="8" height="8" rx="2" fill="#1f6feb" fill-opacity="0.10"/><rect x="116.4" y="90.8" width="8" height="8" rx="2" fill="#1f6feb" fill-opacity="0.10"/><rect x="116.4" y="100.4" width="8" height="8" rx="2" fill="#1f6feb" fill-opacity="0.10"/><rect x="116.4" y="110.0" width="8" height="8" rx="2" fill="#1f6feb" fill-opacity="0.10"/><rect x="116.4" y="119.6" width="8" height="8" rx="2" fill="#1f6feb" fill-opacity="0.10"/><rect x="126.0" y="62.0" width="8" height="8" rx="2" fill="#1f6feb" fill-opacity="0.10"/><rect x="126.0" y="71.6" width="8" height="8" rx="2" fill="#1f6feb" fill-opacity="0.10"/><rect x="126.0" y="81.2" width="8" height="8" rx="2" fill="#1f6feb" fill-opacity="0.10"/><rect x="126.0" y="90.8" width="8" height="8" rx="2" fill="#1f6feb" fill-opacity="0.10"/><rect x="126.0" y="100.4" width="8" height="8" rx="2" fill="#1f6feb" fill-opacity="0.10"/><rect x="126.0" y="110.0" width="8" height="8" rx="2" fill="#1f6feb" fill-opacity="0.10"/><rect x="126.0" y="119.6" width="8" height="8" rx="2" fill="#1f6feb" fill-opacity="0.40"/><rect x="135.6" y="62.0" width="8" height="8" rx="2" fill="#1f6feb" fill-opacity="0.10"/><rect x="135.6" y="71.6" width="8" height="8" rx="2" fill="#1f6feb" fill-opacity="0.10"/><rect x="135.6" y="81.2" width="8" height="8" rx="2" fill="#1f6feb" fill-opacity="0.10"/><rect x="135.6" y="90.8" width="8" height="8" rx="2" fill="#1f6feb" fill-opacity="0.10"/><rect x="135.6" y="100.4" width="8" height="8" rx="2" fill="#1f6feb" fill-opacity="0.10"/><rect x="135.6" y="110.0" width="8" height="8" rx="2" fill="#1f6feb" fill-opacity="0.10"/><rect x="135.6" y="119.6" width="8" height="8" rx="2" fill="#1f6feb" fill-opacity="0.10"/><rect x="145.2" y="62.0" width="8" height="8" rx="2" fill="#1f6feb" fill-opacity="0.10"/><rect x="145.2" y="71.6" width="8" height="8" rx="2" fill="#1f6feb" fill-opacity="0.10"/><rect x="145.2" y="81.2" width="8" height="8" rx="2" fill="#1f6feb" fill-opacity="0.10"/><rect x="145.2" y="90.8" width="8" height="8" rx="2" fill="#1f6feb" fill-opacity="0.10"/><rect x="145.2" y="100.4" width="8" height="8" rx="2" fill="#1f6feb" fill-opacity="0.10"/><rect x="145.2" y="110.0" width="8" height="8" rx="2" fill="#1f6feb" fill-opacity="0.10"/><rect x="145.2" y="119.6" width="8" height="8" rx="2" fill="#1f6feb" fill-opacity="0.10"/><rect x="154.8" y="62.0" width="8" height="8" rx="2" fill="#1f6feb" fill-opacity="0.10"/><rect x="154.8" y="71.6" width="8" height="8" rx="2" fill="#1f6feb" fill-opacity="0.10"/><rect x="154.8" y="81.2" width="8" height="8" rx="2" fill="#1f6feb" fill-opacity="0.10"/><rect x="154.8" y="90.8" width="8" height="8" rx="2" fill="#1f6feb" fill-opacity="0.10"/><rect x="154.8" y="100.4" width="8" height="8" rx="2" fill="#1f6feb" fill-opacity="0.43"/><rect x="154.8" y="110.0" width="8" height="8" rx="2" fill="#1f6feb" fill-opacity="0.10"/><rect x="154.8" y="119.6" width="8" height="8" rx="2" fill="#1f6feb" fill-opacity="0.40"/><rect x="164.4" y="62.0" width="8" height="8" rx="2" fill="#1f6feb" fill-opacity="0.10"/><rect x="164.4" y="71.6" width="8" height="8" rx="2" fill="#1f6feb" fill-opacity="0.10"/><rect x="164.4" y="81.2" width="8" height="8" rx="2" fill="#1f6feb" fill-opacity="0.40"/><rect x="164.4" y="90.8" width="8" height="8" rx="2" fill="#1f6feb" fill-opacity="0.50"/><rect x="164.4" y="100.4" width="8" height="8" rx="2" fill="#1f6feb" fill-opacity="0.40"/><rect x="164.4" y="110.0" width="8" height="8" rx="2" fill="#1f6feb" fill-opacity="0.46"/><rect x="164.4" y="119.6" width="8" height="8" rx="2" fill="#1f6feb" fill-opacity="0.40"/><rect x="174.0" y="62.0" width="8" height="8" rx="2" fill="#1f6feb" fill-opacity="0.43"/><rect x="174.0" y="71.6" width="8" height="8" rx="2" fill="#1f6feb" fill-opacity="0.40"/><rect x="174.0" y="81.2" width="8" height="8" rx="2" fill="#1f6feb" fill-opacity="0.10"/><rect x="174.0" y="90.8" width="8" height="8" rx="2" fill="#1f6feb" fill-opacity="0.10"/><rect x="174.0" y="100.4" width="8" height="8" rx="2" fill="#1f6feb" fill-opacity="0.10"/><rect x="174.0" y="110.0" width="8" height="8" rx="2" fill="#1f6feb" fill-opacity="0.10"/><rect x="174.0" y="119.6" width="8" height="8" rx="2" fill="#1f6feb" fill-opacity="0.10"/><rect x="183.6" y="62.0" width="8" height="8" rx="2" fill="#1f6feb" fill-opacity="0.10"/><rect x="183.6" y="71.6" width="8" height="8" rx="2" fill="#1f6feb" fill-opacity="0.10"/><rect x="183.6" y="81.2" width="8" height="8" rx="2" fill="#1f6feb" fill-opacity="0.10"/><rect x="183.6" y="90.8" width="8" height="8" rx="2" fill="#1f6feb" fill-opacity="0.10"/><rect x="183.6" y="100.4" width="8" height="8" rx="2" fill="#1f6feb" fill-opacity="0.10"/><rect x="183.6" y="110.0" width="8" height="8" rx="2" fill="#1f6feb" fill-opacity="0.10"/><rect x="183.6" y="119.6" width="8" height="8" rx="2" fill="#1f6feb" fill-opacity="0.10"/><rect x="193.2" y="62.0" width="8" height="8" rx="2" fill="#1f6feb" fill-opacity="0.10"/><rect x="193.2" y="71.6" width="8" height="8" rx="2" fill="#1f6feb" fill-opacity="0.10"/><rect x="193.2" y="81.2" width="8" height="8" rx="2" fill="#1f6feb" fill-opacity="0.10"/><rect x="193.2" y="90.8" width="8" height="8" rx="2" fill="#1f6feb" fill-opacity="0.10"/><rect x="193.2" y="100.4" width="8" height="8" rx="2" fill="#1f6feb" fill-opacity="0.10"/><rect x="193.2" y="110.0" width="8" height="8" rx="2" fill="#1f6feb" fill-opacity="0.10"/><rect x="193.2" y="119.6" width="8" height="8" rx="2" fill="#1f6feb" fill-opacity="0.10"/><rect x="202.8" y="62.0" width="8" height="8" rx="2" fill="#1f6feb" fill-opacity="0.10"/><rect x="202.8" y="71.6" width="8" height="8" rx="2" fill="#1f6feb" fill-opacity="0.40"/><rect x="202.8" y="81.2" width="8" height="8" rx="2" fill="#1f6feb" fill-opacity="0.10"/><rect x="202.8" y="90.8" width="8" height="8" rx="2" fill="#1f6feb" fill-opacity="0.10"/><rect x="202.8" y="100.4" width="8" height="8" rx="2" fill="#1f6feb" fill-opacity="0.10"/><rect x="202.8" y="110.0" width="8" height="8" rx="2" fill="#1f6feb" fill-opacity="0.40"/><rect x="202.8" y="119.6" width="8" height="8" rx="2" fill="#1f6feb" fill-opacity="0.43"/><rect x="212.4" y="62.0" width="8" height="8" rx="2" fill="#1f6feb" fill-opacity="0.10"/><rect x="212.4" y="71.6" width="8" height="8" rx="2" fill="#1f6feb" fill-opacity="0.10"/><rect x="212.4" y="81.2" width="8" height="8" rx="2" fill="#1f6feb" fill-opacity="0.10"/><rect x="212.4" y="90.8" width="8" height="8" rx="2" fill="#1f6feb" fill-opacity="0.40"/><rect x="212.4" y="100.4" width="8" height="8" rx="2" fill="#1f6feb" fill-opacity="0.10"/><rect x="212.4" y="110.0" width="8" height="8" rx="2" fill="#1f6feb" fill-opacity="0.10"/><rect x="212.4" y="119.6" width="8" height="8" rx="2" fill="#1f6feb" fill-opacity="0.10"/><rect x="222.0" y="62.0" width="8" height="8" rx="2" fill="#1f6feb" fill-opacity="0.55"/><rect x="222.0" y="71.6" width="8" height="8" rx="2" fill="#1f6feb" fill-opacity="0.70"/><rect x="222.0" y="81.2" width="8" height="8" rx="2" fill="#1f6feb" fill-opacity="0.48"/><rect x="222.0" y="90.8" width="8" height="8" rx="2" fill="#1f6feb" fill-opacity="0.96"/><rect x="222.0" y="100.4" width="8" height="8" rx="2" fill="#1f6feb" fill-opacity="0.80"/><rect x="222.0" y="110.0" width="8" height="8" rx="2" fill="#1f6feb" fill-opacity="0.70"/><rect x="222.0" y="119.6" width="8" height="8" rx="2" fill="#1f6feb" fill-opacity="0.66"/><rect x="231.6" y="62.0" width="8" height="8" rx="2" fill="#1f6feb" fill-opacity="1.00"/><rect x="231.6" y="71.6" width="8" height="8" rx="2" fill="#1f6feb" fill-opacity="0.60"/><rect x="231.6" y="81.2" width="8" height="8" rx="2" fill="#1f6feb" fill-opacity="0.69"/><rect x="231.6" y="90.8" width="8" height="8" rx="2" fill="#1f6feb" fill-opacity="0.10"/><rect x="231.6" y="100.4" width="8" height="8" rx="2" fill="#1f6feb" fill-opacity="0.10"/><rect x="231.6" y="110.0" width="8" height="8" rx="2" fill="#1f6feb" fill-opacity="0.46"/><rect x="231.6" y="119.6" width="8" height="8" rx="2" fill="#1f6feb" fill-opacity="0.10"/><rect x="241.2" y="62.0" width="8" height="8" rx="2" fill="#1f6feb" fill-opacity="0.10"/><rect x="241.2" y="71.6" width="8" height="8" rx="2" fill="#1f6feb" fill-opacity="0.10"/><rect x="241.2" y="81.2" width="8" height="8" rx="2" fill="#1f6feb" fill-opacity="0.10"/><rect x="241.2" y="90.8" width="8" height="8" rx="2" fill="#1f6feb" fill-opacity="0.63"/><rect x="241.2" y="100.4" width="8" height="8" rx="2" fill="#1f6feb" fill-opacity="0.96"/><rect x="241.2" y="110.0" width="8" height="8" rx="2" fill="#1f6feb" fill-opacity="0.79"/><rect x="241.2" y="119.6" width="8" height="8" rx="2" fill="#1f6feb" fill-opacity="0.69"/><rect x="250.8" y="62.0" width="8" height="8" rx="2" fill="#1f6feb" fill-opacity="0.66"/><rect x="250.8" y="71.6" width="8" height="8" rx="2" fill="#1f6feb" fill-opacity="0.10"/><rect x="250.8" y="81.2" width="8" height="8" rx="2" fill="#1f6feb" fill-opacity="0.46"/><rect x="250.8" y="90.8" width="8" height="8" rx="2" fill="#1f6feb" fill-opacity="0.40"/><rect x="250.8" y="100.4" width="8" height="8" rx="2" fill="#1f6feb" fill-opacity="0.50"/><rect x="250.8" y="110.0" width="8" height="8" rx="2" fill="#1f6feb" fill-opacity="0.43"/><rect x="250.8" y="119.6" width="8" height="8" rx="2" fill="#1f6feb" fill-opacity="0.43"/><rect x="260.4" y="62.0" width="8" height="8" rx="2" fill="#1f6feb" fill-opacity="0.43"/><rect x="260.4" y="71.6" width="8" height="8" rx="2" fill="#1f6feb" fill-opacity="0.56"/><rect x="260.4" y="81.2" width="8" height="8" rx="2" fill="#1f6feb" fill-opacity="0.55"/><rect x="260.4" y="90.8" width="8" height="8" rx="2" fill="#1f6feb" fill-opacity="0.40"/><rect x="260.4" y="100.4" width="8" height="8" rx="2" fill="#1f6feb" fill-opacity="0.52"/><rect x="260.4" y="110.0" width="8" height="8" rx="2" fill="#1f6feb" fill-opacity="0.46"/><rect x="260.4" y="119.6" width="8" height="8" rx="2" fill="#1f6feb" fill-opacity="0.46"/><rect x="270.0" y="62.0" width="8" height="8" rx="2" fill="#1f6feb" fill-opacity="0.10"/><rect x="270.0" y="71.6" width="8" height="8" rx="2" fill="#1f6feb" fill-opacity="0.50"/><rect x="270.0" y="81.2" width="8" height="8" rx="2" fill="#1f6feb" fill-opacity="0.40"/><rect x="270.0" y="90.8" width="8" height="8" rx="2" fill="#1f6feb" fill-opacity="0.46"/><rect x="270.0" y="100.4" width="8" height="8" rx="2" fill="#1f6feb" fill-opacity="0.43"/><rect x="270.0" y="110.0" width="8" height="8" rx="2" fill="#1f6feb" fill-opacity="0.43"/><rect x="270.0" y="119.6" width="8" height="8" rx="2" fill="#1f6feb" fill-opacity="0.10"/><rect x="279.6" y="62.0" width="8" height="8" rx="2" fill="#1f6feb" fill-opacity="0.10"/><rect x="279.6" y="71.6" width="8" height="8" rx="2" fill="#1f6feb" fill-opacity="0.69"/><rect x="279.6" y="81.2" width="8" height="8" rx="2" fill="#1f6feb" fill-opacity="0.10"/><rect x="279.6" y="90.8" width="8" height="8" rx="2" fill="#1f6feb" fill-opacity="0.53"/><rect x="279.6" y="100.4" width="8" height="8" rx="2" fill="#1f6feb" fill-opacity="0.48"/><rect x="279.6" y="110.0" width="8" height="8" rx="2" fill="#1f6feb" fill-opacity="0.40"/><rect x="279.6" y="119.6" width="8" height="8" rx="2" fill="#1f6feb" fill-opacity="0.10"/><rect x="289.2" y="62.0" width="8" height="8" rx="2" fill="#1f6feb" fill-opacity="0.40"/><rect x="289.2" y="71.6" width="8" height="8" rx="2" fill="#1f6feb" fill-opacity="0.46"/><rect x="289.2" y="81.2" width="8" height="8" rx="2" fill="#1f6feb" fill-opacity="0.48"/><rect x="289.2" y="90.8" width="8" height="8" rx="2" fill="#1f6feb" fill-opacity="0.50"/><rect x="289.2" y="100.4" width="8" height="8" rx="2" fill="#1f6feb" fill-opacity="0.55"/><rect x="289.2" y="110.0" width="8" height="8" rx="2" fill="#1f6feb" fill-opacity="0.10"/><rect x="289.2" y="119.6" width="8" height="8" rx="2" fill="#1f6feb" fill-opacity="0.40"/><rect x="298.8" y="62.0" width="8" height="8" rx="2" fill="#1f6feb" fill-opacity="0.10"/><rect x="298.8" y="71.6" width="8" height="8" rx="2" fill="#1f6feb" fill-opacity="0.40"/><rect x="298.8" y="81.2" width="8" height="8" rx="2" fill="#1f6feb" fill-opacity="0.10"/><rect x="298.8" y="90.8" width="8" height="8" rx="2" fill="#1f6feb" fill-opacity="0.40"/><rect x="298.8" y="100.4" width="8" height="8" rx="2" fill="#1f6feb" fill-opacity="0.10"/><rect x="298.8" y="110.0" width="8" height="8" rx="2" fill="#1f6feb" fill-opacity="0.40"/><rect x="298.8" y="119.6" width="8" height="8" rx="2" fill="#1f6feb" fill-opacity="0.10"/><rect x="308.4" y="62.0" width="8" height="8" rx="2" fill="#1f6feb" fill-opacity="0.48"/><rect x="308.4" y="71.6" width="8" height="8" rx="2" fill="#1f6feb" fill-opacity="0.40"/><rect x="308.4" y="81.2" width="8" height="8" rx="2" fill="#1f6feb" fill-opacity="0.10"/><rect x="308.4" y="90.8" width="8" height="8" rx="2" fill="#1f6feb" fill-opacity="0.48"/><rect x="308.4" y="100.4" width="8" height="8" rx="2" fill="#1f6feb" fill-opacity="0.46"/><rect x="308.4" y="110.0" width="8" height="8" rx="2" fill="#1f6feb" fill-opacity="0.10"/><rect x="308.4" y="119.6" width="8" height="8" rx="2" fill="#1f6feb" fill-opacity="0.50"/><rect x="318.0" y="62.0" width="8" height="8" rx="2" fill="#1f6feb" fill-opacity="0.10"/><rect x="318.0" y="71.6" width="8" height="8" rx="2" fill="#1f6feb" fill-opacity="0.43"/><rect x="318.0" y="81.2" width="8" height="8" rx="2" fill="#1f6feb" fill-opacity="0.43"/><rect x="318.0" y="90.8" width="8" height="8" rx="2" fill="#1f6feb" fill-opacity="0.40"/><rect x="318.0" y="100.4" width="8" height="8" rx="2" fill="#1f6feb" fill-opacity="0.43"/><rect x="318.0" y="110.0" width="8" height="8" rx="2" fill="#1f6feb" fill-opacity="0.46"/><rect x="318.0" y="119.6" width="8" height="8" rx="2" fill="#1f6feb" fill-opacity="0.46"/><rect x="327.6" y="62.0" width="8" height="8" rx="2" fill="#1f6feb" fill-opacity="0.56"/><rect x="327.6" y="71.6" width="8" height="8" rx="2" fill="#1f6feb" fill-opacity="0.52"/><rect x="327.6" y="81.2" width="8" height="8" rx="2" fill="#1f6feb" fill-opacity="0.63"/><rect x="327.6" y="90.8" width="8" height="8" rx="2" fill="#1f6feb" fill-opacity="0.56"/><rect x="327.6" y="100.4" width="8" height="8" rx="2" fill="#1f6feb" fill-opacity="0.43"/><rect x="327.6" y="110.0" width="8" height="8" rx="2" fill="#1f6feb" fill-opacity="0.10"/><rect x="327.6" y="119.6" width="8" height="8" rx="2" fill="#1f6feb" fill-opacity="0.10"/><rect x="337.2" y="62.0" width="8" height="8" rx="2" fill="#1f6feb" fill-opacity="0.61"/><rect x="337.2" y="71.6" width="8" height="8" rx="2" fill="#1f6feb" fill-opacity="0.50"/><rect x="337.2" y="81.2" width="8" height="8" rx="2" fill="#1f6feb" fill-opacity="0.57"/><rect x="337.2" y="90.8" width="8" height="8" rx="2" fill="#1f6feb" fill-opacity="0.46"/><rect x="337.2" y="100.4" width="8" height="8" rx="2" fill="#1f6feb" fill-opacity="0.48"/><rect x="337.2" y="110.0" width="8" height="8" rx="2" fill="#1f6feb" fill-opacity="0.10"/><rect x="337.2" y="119.6" width="8" height="8" rx="2" fill="#1f6feb" fill-opacity="0.10"/><rect x="346.8" y="62.0" width="8" height="8" rx="2" fill="#1f6feb" fill-opacity="0.48"/><rect x="346.8" y="71.6" width="8" height="8" rx="2" fill="#1f6feb" fill-opacity="0.40"/><rect x="346.8" y="81.2" width="8" height="8" rx="2" fill="#1f6feb" fill-opacity="0.50"/><rect x="346.8" y="90.8" width="8" height="8" rx="2" fill="#1f6feb" fill-opacity="0.61"/><rect x="346.8" y="100.4" width="8" height="8" rx="2" fill="#1f6feb" fill-opacity="0.73"/><rect x="346.8" y="110.0" width="8" height="8" rx="2" fill="#1f6feb" fill-opacity="0.56"/><rect x="346.8" y="119.6" width="8" height="8" rx="2" fill="#1f6feb" fill-opacity="0.48"/><rect x="356.4" y="62.0" width="8" height="8" rx="2" fill="#1f6feb" fill-opacity="0.10"/><rect x="356.4" y="71.6" width="8" height="8" rx="2" fill="#1f6feb" fill-opacity="0.55"/><rect x="356.4" y="81.2" width="8" height="8" rx="2" fill="#1f6feb" fill-opacity="0.65"/><rect x="356.4" y="90.8" width="8" height="8" rx="2" fill="#1f6feb" fill-opacity="0.43"/><rect x="356.4" y="100.4" width="8" height="8" rx="2" fill="#1f6feb" fill-opacity="0.64"/><rect x="356.4" y="110.0" width="8" height="8" rx="2" fill="#1f6feb" fill-opacity="0.48"/><rect x="356.4" y="119.6" width="8" height="8" rx="2" fill="#1f6feb" fill-opacity="0.10"/><rect x="366.0" y="62.0" width="8" height="8" rx="2" fill="#1f6feb" fill-opacity="0.40"/><rect x="366.0" y="71.6" width="8" height="8" rx="2" fill="#1f6feb" fill-opacity="0.53"/><rect x="366.0" y="81.2" width="8" height="8" rx="2" fill="#1f6feb" fill-opacity="0.48"/><rect x="366.0" y="90.8" width="8" height="8" rx="2" fill="#1f6feb" fill-opacity="0.63"/><rect x="366.0" y="100.4" width="8" height="8" rx="2" fill="#1f6feb" fill-opacity="0.57"/><rect x="366.0" y="110.0" width="8" height="8" rx="2" fill="#1f6feb" fill-opacity="0.65"/><rect x="366.0" y="119.6" width="8" height="8" rx="2" fill="#1f6feb" fill-opacity="0.66"/><rect x="375.6" y="62.0" width="8" height="8" rx="2" fill="#1f6feb" fill-opacity="0.50"/><rect x="375.6" y="71.6" width="8" height="8" rx="2" fill="#1f6feb" fill-opacity="0.66"/><rect x="375.6" y="81.2" width="8" height="8" rx="2" fill="#1f6feb" fill-opacity="0.55"/><rect x="375.6" y="90.8" width="8" height="8" rx="2" fill="#1f6feb" fill-opacity="0.67"/><rect x="375.6" y="100.4" width="8" height="8" rx="2" fill="#1f6feb" fill-opacity="0.66"/><rect x="375.6" y="110.0" width="8" height="8" rx="2" fill="#1f6feb" fill-opacity="0.40"/><rect x="375.6" y="119.6" width="8" height="8" rx="2" fill="#1f6feb" fill-opacity="0.40"/><rect x="385.2" y="62.0" width="8" height="8" rx="2" fill="#1f6feb" fill-opacity="0.62"/><rect x="385.2" y="71.6" width="8" height="8" rx="2" fill="#1f6feb" fill-opacity="0.46"/><rect x="385.2" y="81.2" width="8" height="8" rx="2" fill="#1f6feb" fill-opacity="0.57"/><rect x="385.2" y="90.8" width="8" height="8" rx="2" fill="#1f6feb" fill-opacity="0.10"/><rect x="385.2" y="100.4" width="8" height="8" rx="2" fill="#1f6feb" fill-opacity="0.10"/><rect x="385.2" y="110.0" width="8" height="8" rx="2" fill="#1f6feb" fill-opacity="0.46"/><rect x="385.2" y="119.6" width="8" height="8" rx="2" fill="#1f6feb" fill-opacity="0.55"/><rect x="394.8" y="62.0" width="8" height="8" rx="2" fill="#1f6feb" fill-opacity="0.57"/><rect x="394.8" y="71.6" width="8" height="8" rx="2" fill="#1f6feb" fill-opacity="0.77"/><rect x="394.8" y="81.2" width="8" height="8" rx="2" fill="#1f6feb" fill-opacity="0.67"/><rect x="394.8" y="90.8" width="8" height="8" rx="2" fill="#1f6feb" fill-opacity="0.56"/><rect x="394.8" y="100.4" width="8" height="8" rx="2" fill="#1f6feb" fill-opacity="0.66"/><rect x="394.8" y="110.0" width="8" height="8" rx="2" fill="#1f6feb" fill-opacity="0.56"/><rect x="394.8" y="119.6" width="8" height="8" rx="2" fill="#1f6feb" fill-opacity="0.48"/><rect x="404.4" y="62.0" width="8" height="8" rx="2" fill="#1f6feb" fill-opacity="0.10"/><rect x="404.4" y="71.6" width="8" height="8" rx="2" fill="#1f6feb" fill-opacity="0.59"/><rect x="404.4" y="81.2" width="8" height="8" rx="2" fill="#1f6feb" fill-opacity="0.50"/><rect x="404.4" y="90.8" width="8" height="8" rx="2" fill="#1f6feb" fill-opacity="0.66"/><rect x="404.4" y="100.4" width="8" height="8" rx="2" fill="#1f6feb" fill-opacity="0.62"/><rect x="404.4" y="110.0" width="8" height="8" rx="2" fill="#1f6feb" fill-opacity="0.86"/><rect x="404.4" y="119.6" width="8" height="8" rx="2" fill="#1f6feb" fill-opacity="0.46"/><rect x="414.0" y="62.0" width="8" height="8" rx="2" fill="#1f6feb" fill-opacity="0.10"/><rect x="414.0" y="71.6" width="8" height="8" rx="2" fill="#1f6feb" fill-opacity="0.70"/><rect x="414.0" y="81.2" width="8" height="8" rx="2" fill="#1f6feb" fill-opacity="0.77"/><rect x="414.0" y="90.8" width="8" height="8" rx="2" fill="#1f6feb" fill-opacity="0.90"/><rect x="414.0" y="100.4" width="8" height="8" rx="2" fill="#1f6feb" fill-opacity="0.66"/><rect x="414.0" y="110.0" width="8" height="8" rx="2" fill="#1f6feb" fill-opacity="0.48"/><rect x="414.0" y="119.6" width="8" height="8" rx="2" fill="#1f6feb" fill-opacity="0.48"/><rect x="423.6" y="62.0" width="8" height="8" rx="2" fill="#1f6feb" fill-opacity="0.66"/><rect x="423.6" y="71.6" width="8" height="8" rx="2" fill="#1f6feb" fill-opacity="0.40"/><rect x="423.6" y="81.2" width="8" height="8" rx="2" fill="#1f6feb" fill-opacity="0.67"/><rect x="423.6" y="90.8" width="8" height="8" rx="2" fill="#1f6feb" fill-opacity="0.56"/><rect x="423.6" y="100.4" width="8" height="8" rx="2" fill="#1f6feb" fill-opacity="0.77"/><rect x="423.6" y="110.0" width="8" height="8" rx="2" fill="#1f6feb" fill-opacity="0.46"/><rect x="423.6" y="119.6" width="8" height="8" rx="2" fill="#1f6feb" fill-opacity="0.52"/><rect x="433.2" y="62.0" width="8" height="8" rx="2" fill="#1f6feb" fill-opacity="0.65"/><rect x="433.2" y="71.6" width="8" height="8" rx="2" fill="#1f6feb" fill-opacity="0.10"/><rect x="433.2" y="81.2" width="8" height="8" rx="2" fill="#1f6feb" fill-opacity="0.48"/><rect x="433.2" y="90.8" width="8" height="8" rx="2" fill="#1f6feb" fill-opacity="0.10"/><rect x="433.2" y="100.4" width="8" height="8" rx="2" fill="#1f6feb" fill-opacity="0.46"/><rect x="433.2" y="110.0" width="8" height="8" rx="2" fill="#1f6feb" fill-opacity="0.56"/><rect x="433.2" y="119.6" width="8" height="8" rx="2" fill="#1f6feb" fill-opacity="0.48"/><rect x="442.8" y="62.0" width="8" height="8" rx="2" fill="#1f6feb" fill-opacity="0.46"/><rect x="442.8" y="71.6" width="8" height="8" rx="2" fill="#1f6feb" fill-opacity="0.48"/><rect x="442.8" y="81.2" width="8" height="8" rx="2" fill="#1f6feb" fill-opacity="0.59"/><rect x="442.8" y="90.8" width="8" height="8" rx="2" fill="#1f6feb" fill-opacity="0.10"/><rect x="442.8" y="100.4" width="8" height="8" rx="2" fill="#1f6feb" fill-opacity="0.40"/><rect x="442.8" y="110.0" width="8" height="8" rx="2" fill="#1f6feb" fill-opacity="0.43"/><rect x="442.8" y="119.6" width="8" height="8" rx="2" fill="#1f6feb" fill-opacity="0.48"/><rect x="452.4" y="62.0" width="8" height="8" rx="2" fill="#1f6feb" fill-opacity="0.10"/><rect x="452.4" y="71.6" width="8" height="8" rx="2" fill="#1f6feb" fill-opacity="0.48"/><rect x="452.4" y="81.2" width="8" height="8" rx="2" fill="#1f6feb" fill-opacity="0.70"/><rect x="452.4" y="90.8" width="8" height="8" rx="2" fill="#1f6feb" fill-opacity="0.57"/><rect x="452.4" y="100.4" width="8" height="8" rx="2" fill="#1f6feb" fill-opacity="0.96"/><rect x="452.4" y="110.0" width="8" height="8" rx="2" fill="#1f6feb" fill-opacity="0.89"/><rect x="452.4" y="119.6" width="8" height="8" rx="2" fill="#1f6feb" fill-opacity="0.60"/><rect x="462.0" y="62.0" width="8" height="8" rx="2" fill="#1f6feb" fill-opacity="0.10"/><rect x="462.0" y="71.6" width="8" height="8" rx="2" fill="#1f6feb" fill-opacity="0.71"/><rect x="462.0" y="81.2" width="8" height="8" rx="2" fill="#1f6feb" fill-opacity="0.50"/><rect x="462.0" y="90.8" width="8" height="8" rx="2" fill="#1f6feb" fill-opacity="0.59"/><rect x="462.0" y="100.4" width="8" height="8" rx="2" fill="#1f6feb" fill-opacity="0.77"/><rect x="462.0" y="110.0" width="8" height="8" rx="2" fill="#1f6feb" fill-opacity="0.48"/><rect x="462.0" y="119.6" width="8" height="8" rx="2" fill="#1f6feb" fill-opacity="0.43"/><rect x="471.6" y="62.0" width="8" height="8" rx="2" fill="#1f6feb" fill-opacity="0.57"/><rect x="471.6" y="71.6" width="8" height="8" rx="2" fill="#1f6feb" fill-opacity="0.53"/><rect x="471.6" y="81.2" width="8" height="8" rx="2" fill="#1f6feb" fill-opacity="0.10"/><rect x="471.6" y="90.8" width="8" height="8" rx="2" fill="#1f6feb" fill-opacity="0.43"/><rect x="471.6" y="100.4" width="8" height="8" rx="2" fill="#1f6feb" fill-opacity="0.10"/><rect x="471.6" y="110.0" width="8" height="8" rx="2" fill="#1f6feb" fill-opacity="0.65"/><rect x="471.6" y="119.6" width="8" height="8" rx="2" fill="#1f6feb" fill-opacity="0.10"/><rect x="481.2" y="62.0" width="8" height="8" rx="2" fill="#1f6feb" fill-opacity="0.43"/><rect x="481.2" y="71.6" width="8" height="8" rx="2" fill="#1f6feb" fill-opacity="0.43"/><rect x="481.2" y="81.2" width="8" height="8" rx="2" fill="#1f6feb" fill-opacity="0.10"/><rect x="481.2" y="90.8" width="8" height="8" rx="2" fill="#1f6feb" fill-opacity="0.75"/><rect x="481.2" y="100.4" width="8" height="8" rx="2" fill="#1f6feb" fill-opacity="0.56"/><rect x="481.2" y="110.0" width="8" height="8" rx="2" fill="#1f6feb" fill-opacity="0.56"/><rect x="481.2" y="119.6" width="8" height="8" rx="2" fill="#1f6feb" fill-opacity="0.48"/><rect x="490.8" y="62.0" width="8" height="8" rx="2" fill="#1f6feb" fill-opacity="0.40"/><rect x="490.8" y="71.6" width="8" height="8" rx="2" fill="#1f6feb" fill-opacity="0.53"/><rect x="490.8" y="81.2" width="8" height="8" rx="2" fill="#1f6feb" fill-opacity="0.59"/><rect x="490.8" y="90.8" width="8" height="8" rx="2" fill="#1f6feb" fill-opacity="0.43"/><rect x="490.8" y="100.4" width="8" height="8" rx="2" fill="#1f6feb" fill-opacity="0.55"/><rect x="490.8" y="110.0" width="8" height="8" rx="2" fill="#1f6feb" fill-opacity="0.70"/><rect x="490.8" y="119.6" width="8" height="8" rx="2" fill="#1f6feb" fill-opacity="0.71"/><rect x="500.4" y="62.0" width="8" height="8" rx="2" fill="#1f6feb" fill-opacity="0.82"/><rect x="500.4" y="71.6" width="8" height="8" rx="2" fill="#1f6feb" fill-opacity="0.85"/><rect x="500.4" y="81.2" width="8" height="8" rx="2" fill="#1f6feb" fill-opacity="0.43"/><rect x="500.4" y="90.8" width="8" height="8" rx="2" fill="#1f6feb" fill-opacity="0.56"/><rect x="500.4" y="100.4" width="8" height="8" rx="2" fill="#1f6feb" fill-opacity="0.65"/><rect x="500.4" y="110.0" width="8" height="8" rx="2" fill="#1f6feb" fill-opacity="0.68"/><rect x="500.4" y="119.6" width="8" height="8" rx="2" fill="#1f6feb" fill-opacity="0.75"/><rect x="510.0" y="62.0" width="8" height="8" rx="2" fill="#1f6feb" fill-opacity="0.77"/><rect x="510.0" y="71.6" width="8" height="8" rx="2" fill="#1f6feb" fill-opacity="0.84"/><rect x="510.0" y="81.2" width="8" height="8" rx="2" fill="#1f6feb" fill-opacity="0.80"/><rect x="510.0" y="90.8" width="8" height="8" rx="2" fill="#1f6feb" fill-opacity="0.63"/><rect x="510.0" y="100.4" width="8" height="8" rx="2" fill="#1f6feb" fill-opacity="0.71"/><rect x="510.0" y="110.0" width="8" height="8" rx="2" fill="#1f6feb" fill-opacity="0.43"/><rect x="510.0" y="119.6" width="8" height="8" rx="2" fill="#1f6feb" fill-opacity="0.43"/><rect x="519.6" y="62.0" width="8" height="8" rx="2" fill="#1f6feb" fill-opacity="0.93"/><rect x="519.6" y="71.6" width="8" height="8" rx="2" fill="#1f6feb" fill-opacity="0.62"/><rect x="519.6" y="81.2" width="8" height="8" rx="2" fill="#1f6feb" fill-opacity="0.10"/><rect x="519.6" y="90.8" width="8" height="8" rx="2" fill="#1f6feb" fill-opacity="0.57"/><rect x="519.6" y="100.4" width="8" height="8" rx="2" fill="#1f6feb" fill-opacity="0.46"/><rect x="519.6" y="110.0" width="8" height="8" rx="2" fill="#1f6feb" fill-opacity="0.52"/><rect x="519.6" y="119.6" width="8" height="8" rx="2" fill="#1f6feb" fill-opacity="0.66"/><rect x="529.2" y="62.0" width="8" height="8" rx="2" fill="#1f6feb" fill-opacity="0.61"/><rect x="529.2" y="71.6" width="8" height="8" rx="2" fill="#1f6feb" fill-opacity="0.62"/><rect x="529.2" y="81.2" width="8" height="8" rx="2" fill="#1f6feb" fill-opacity="0.66"/><rect x="529.2" y="90.8" width="8" height="8" rx="2" fill="#1f6feb" fill-opacity="0.66"/><rect x="529.2" y="100.4" width="8" height="8" rx="2" fill="#1f6feb" fill-opacity="0.80"/><rect x="529.2" y="110.0" width="8" height="8" rx="2" fill="#1f6feb" fill-opacity="0.83"/><rect x="529.2" y="119.6" width="8" height="8" rx="2" fill="#1f6feb" fill-opacity="0.68"/><text x="0" y="80" fill="#8b949e" font-size="8.5" font-family="system-ui,-apple-system,Segoe UI,Roboto,Helvetica,Arial,sans-serif">Mon</text><text x="0" y="99" fill="#8b949e" font-size="8.5" font-family="system-ui,-apple-system,Segoe UI,Roboto,Helvetica,Arial,sans-serif">Wed</text><text x="0" y="118" fill="#8b949e" font-size="8.5" font-family="system-ui,-apple-system,Segoe UI,Roboto,Helvetica,Arial,sans-serif">Fri</text><text x="30" y="56" fill="#8b949e" font-size="8.5" font-family="system-ui,-apple-system,Segoe UI,Roboto,Helvetica,Arial,sans-serif">Aug</text><text x="78" y="56" fill="#8b949e" font-size="8.5" font-family="system-ui,-apple-system,Segoe UI,Roboto,Helvetica,Arial,sans-serif">Sep</text><text x="116" y="56" fill="#8b949e" font-size="8.5" font-family="system-ui,-apple-system,Segoe UI,Roboto,Helvetica,Arial,sans-serif">Oct</text><text x="155" y="56" fill="#8b949e" font-size="8.5" font-family="system-ui,-apple-system,Segoe UI,Roboto,Helvetica,Arial,sans-serif">Nov</text><text x="203" y="56" fill="#8b949e" font-size="8.5" font-family="system-ui,-apple-system,Segoe UI,Roboto,Helvetica,Arial,sans-serif">Dec</text><text x="241" y="56" fill="#8b949e" font-size="8.5" font-family="system-ui,-apple-system,Segoe UI,Roboto,Helvetica,Arial,sans-serif">Jan</text><text x="280" y="56" fill="#8b949e" font-size="8.5" font-family="system-ui,-apple-system,Segoe UI,Roboto,Helvetica,Arial,sans-serif">Feb</text><text x="318" y="56" fill="#8b949e" font-size="8.5" font-family="system-ui,-apple-system,Segoe UI,Roboto,Helvetica,Arial,sans-serif">Mar</text><text x="366" y="56" fill="#8b949e" font-size="8.5" font-family="system-ui,-apple-system,Segoe UI,Roboto,Helvetica,Arial,sans-serif">Apr</text><text x="404" y="56" fill="#8b949e" font-size="8.5" font-family="system-ui,-apple-system,Segoe UI,Roboto,Helvetica,Arial,sans-serif">May</text><text x="452" y="56" fill="#8b949e" font-size="8.5" font-family="system-ui,-apple-system,Segoe UI,Roboto,Helvetica,Arial,sans-serif">Jun</text><text x="491" y="56" fill="#8b949e" font-size="8.5" font-family="system-ui,-apple-system,Segoe UI,Roboto,Helvetica,Arial,sans-serif">Jul</text><text x="30" y="145.2" fill="#8b949e" font-size="9" font-family="system-ui,-apple-system,Segoe UI,Roboto,Helvetica,Arial,sans-serif">Private contributions included · most of this work is under NDA</text></svg>